<svg xmlns="http://www.w3.org/2000/svg" width="409.213" height="154.584" viewBox="0 0 409.213 154.584">
  <g id="Group_77" data-name="Group 77" transform="translate(-274.993 -78.835)">
    <g id="test">
      <g id="Group_76" data-name="Group 76">
        <g id="Group_72" data-name="Group 72">
          <g id="Group_50" data-name="Group 50">
            <path id="Path_388" data-name="Path 388" d="M274.993,78.835l66.541,25.691v73.007l-66.541,25.691" fill="#4f7c1a"/>
            <g id="Group_49" data-name="Group 49">
              <g id="Group_48" data-name="Group 48">
                <path id="Path_389" data-name="Path 389" d="M330.163,154.276a3.935,3.935,0,0,1,3.233,1.52,6.4,6.4,0,0,1,1.242,4.132h0a7.124,7.124,0,0,1-4.368,6.123h0a38.456,38.456,0,0,1-9.056,3.6A37.426,37.426,0,0,1,311.558,171h0q-13.895,0-22.03-8.007t-8.114-21.9h0a33.491,33.491,0,0,1,3.532-15.65,25.642,25.642,0,0,1,9.956-10.619,28.239,28.239,0,0,1,14.537-3.747h0a26.1,26.1,0,0,1,13.53,3.4,23.153,23.153,0,0,1,8.95,9.656,31.941,31.941,0,0,1,3.19,14.73h0q0,5.052-4.475,5.052H295.908a18.572,18.572,0,0,0,4.581,11.947,15.413,15.413,0,0,0,11.3,3.832h0a21.452,21.452,0,0,0,6.658-.942,67.409,67.409,0,0,0,6.53-2.59h0A12.978,12.978,0,0,1,330.163,154.276ZM309.8,121.433a12.71,12.71,0,0,0-9.613,3.747,17.87,17.87,0,0,0-4.282,10.855H322.52a16.785,16.785,0,0,0-3.533-10.9A11.7,11.7,0,0,0,309.8,121.433Z" fill="#fff"/>
              </g>
            </g>
          </g>
          <g id="Group_53" data-name="Group 53">
            <g id="Group_52" data-name="Group 52">
              <g id="Group_51" data-name="Group 51">
                <path id="Path_390" data-name="Path 390" d="M378.827,171a30.566,30.566,0,0,1-15.137-3.639,24.94,24.94,0,0,1-10.062-10.384,33.087,33.087,0,0,1-3.533-15.65h0a32.956,32.956,0,0,1,3.7-15.843,26.143,26.143,0,0,1,10.427-10.662,31.041,31.041,0,0,1,15.414-3.747h0a34.55,34.55,0,0,1,9.249,1.285,30.9,30.9,0,0,1,8.2,3.532h0a7.3,7.3,0,0,1,3.768,6.23h0a6.671,6.671,0,0,1-1.241,4.2,3.919,3.919,0,0,1-3.233,1.584h0a7.163,7.163,0,0,1-2.719-.578,23.864,23.864,0,0,1-2.826-1.434h0a31.775,31.775,0,0,0-4.946-2.4,15.438,15.438,0,0,0-5.417-.878h0a13.778,13.778,0,0,0-11.24,4.753,21.059,21.059,0,0,0-3.939,13.723h0a20.772,20.772,0,0,0,3.939,13.6,13.749,13.749,0,0,0,11.24,4.775h0a14.608,14.608,0,0,0,5.246-.878,48.172,48.172,0,0,0,5.117-2.419h0a21.9,21.9,0,0,1,3.061-1.585,6.8,6.8,0,0,1,2.591-.535h0a3.94,3.94,0,0,1,3.19,1.649,6.479,6.479,0,0,1,1.284,4.11h0a6.7,6.7,0,0,1-.877,3.49,8.19,8.19,0,0,1-2.891,2.633h0a30.264,30.264,0,0,1-8.478,3.726A36.5,36.5,0,0,1,378.827,171Z" fill="#383c93"/>
              </g>
            </g>
          </g>
          <g id="Group_56" data-name="Group 56">
            <g id="Group_55" data-name="Group 55">
              <g id="Group_54" data-name="Group 54">
                <path id="Path_391" data-name="Path 391" d="M416.839,170.761a7.617,7.617,0,0,1-5.245-1.82,6.678,6.678,0,0,1-2.055-5.245h0V93.408a6.5,6.5,0,0,1,2.055-5.2,7.792,7.792,0,0,1,5.245-1.756h0a8.017,8.017,0,0,1,5.289,1.756,6.4,6.4,0,0,1,2.119,5.2h0V163.7a6.575,6.575,0,0,1-2.119,5.245A7.832,7.832,0,0,1,416.839,170.761Z" fill="#383c93"/>
              </g>
            </g>
          </g>
          <g id="Group_59" data-name="Group 59">
            <g id="Group_58" data-name="Group 58">
              <g id="Group_57" data-name="Group 57">
                <path id="Path_392" data-name="Path 392" d="M481.56,154.276a3.934,3.934,0,0,1,3.233,1.52,6.4,6.4,0,0,1,1.242,4.132h0a7.124,7.124,0,0,1-4.367,6.123h0a38.463,38.463,0,0,1-9.057,3.6A37.424,37.424,0,0,1,462.956,171h0q-13.9,0-22.031-8.007t-8.114-21.9h0a33.492,33.492,0,0,1,3.533-15.65,25.646,25.646,0,0,1,9.955-10.619,28.241,28.241,0,0,1,14.537-3.747h0a26.108,26.108,0,0,1,13.531,3.4,23.151,23.151,0,0,1,8.949,9.656,31.941,31.941,0,0,1,3.19,14.73h0q0,5.052-4.475,5.052H447.3a18.573,18.573,0,0,0,4.582,11.947,15.409,15.409,0,0,0,11.3,3.832h0a21.452,21.452,0,0,0,6.658-.942,67.307,67.307,0,0,0,6.53-2.59h0A12.989,12.989,0,0,1,481.56,154.276ZM461.2,121.433a12.71,12.71,0,0,0-9.613,3.747,17.876,17.876,0,0,0-4.282,10.855h26.612a16.785,16.785,0,0,0-3.532-10.9A11.706,11.706,0,0,0,461.2,121.433Z" fill="#383c93"/>
              </g>
            </g>
          </g>
          <g id="Group_62" data-name="Group 62">
            <g id="Group_61" data-name="Group 61">
              <g id="Group_60" data-name="Group 60">
                <path id="Path_393" data-name="Path 393" d="M523.8,171a30.563,30.563,0,0,1-15.136-3.639A24.948,24.948,0,0,1,498.6,156.973a33.1,33.1,0,0,1-3.532-15.65h0a32.944,32.944,0,0,1,3.7-15.843A26.135,26.135,0,0,1,509.2,114.818a31.045,31.045,0,0,1,15.415-3.747h0a34.555,34.555,0,0,1,9.249,1.285,30.9,30.9,0,0,1,8.2,3.532h0a7.3,7.3,0,0,1,3.768,6.23h0a6.672,6.672,0,0,1-1.242,4.2,3.918,3.918,0,0,1-3.233,1.584h0a7.167,7.167,0,0,1-2.719-.578,24.017,24.017,0,0,1-2.826-1.434h0a31.764,31.764,0,0,0-4.945-2.4,15.441,15.441,0,0,0-5.417-.878h0a13.776,13.776,0,0,0-11.24,4.753,21.053,21.053,0,0,0-3.939,13.723h0a20.76,20.76,0,0,0,3.939,13.6,13.747,13.747,0,0,0,11.24,4.775h0a14.606,14.606,0,0,0,5.245-.878,47.983,47.983,0,0,0,5.117-2.419h0a21.908,21.908,0,0,1,3.062-1.585,6.8,6.8,0,0,1,2.59-.535h0a3.937,3.937,0,0,1,3.19,1.649,6.48,6.48,0,0,1,1.285,4.11h0a6.706,6.706,0,0,1-.878,3.49,8.187,8.187,0,0,1-2.89,2.633h0a30.264,30.264,0,0,1-8.478,3.726A36.5,36.5,0,0,1,523.8,171Z" fill="#383c93"/>
              </g>
            </g>
          </g>
          <g id="Group_65" data-name="Group 65">
            <g id="Group_64" data-name="Group 64">
              <g id="Group_63" data-name="Group 63">
                <path id="Path_394" data-name="Path 394" d="M592.9,159.8q5.887.365,5.887,5.31h0a4.792,4.792,0,0,1-2.312,4.3,10.9,10.9,0,0,1-6.53,1.242h0l-3.168-.236Q566.994,169,566.995,149.223h0V123.532h-5.909a7.475,7.475,0,0,1-4.881-1.414,5.019,5.019,0,0,1-1.713-4.11h0a5.022,5.022,0,0,1,1.713-4.111,7.48,7.48,0,0,1,4.881-1.413h5.909V101.63a6.637,6.637,0,0,1,1.991-5.053,7.606,7.606,0,0,1,5.417-1.884h0a7.381,7.381,0,0,1,5.288,1.884,6.593,6.593,0,0,1,2.013,5.053h0v10.854h10.019A7.485,7.485,0,0,1,596.6,113.9a5.054,5.054,0,0,1,1.691,4.111h0a5.051,5.051,0,0,1-1.691,4.11,7.48,7.48,0,0,1-4.882,1.414H581.7v26.74q0,8.713,8.007,9.292h0Z" fill="#383c93"/>
              </g>
            </g>
          </g>
          <g id="Group_68" data-name="Group 68">
            <g id="Group_67" data-name="Group 67">
              <g id="Group_66" data-name="Group 66">
                <path id="Path_395" data-name="Path 395" d="M616.066,170.761a7.615,7.615,0,0,1-5.245-1.82,6.676,6.676,0,0,1-2.056-5.245h0V118.243a6.435,6.435,0,0,1,2.056-5.181,7.737,7.737,0,0,1,5.245-1.777h0a7.958,7.958,0,0,1,5.288,1.777,6.342,6.342,0,0,1,2.12,5.181h0V163.7a6.576,6.576,0,0,1-2.12,5.245A7.831,7.831,0,0,1,616.066,170.761Zm0-69.945a9.058,9.058,0,0,1-6.38-2.184,7.44,7.44,0,0,1-2.334-5.7h0a7.266,7.266,0,0,1,2.334-5.652,9.176,9.176,0,0,1,6.38-2.141h0a9.146,9.146,0,0,1,6.294,2.141,7.167,7.167,0,0,1,2.4,5.652h0a7.436,7.436,0,0,1-2.334,5.7A8.987,8.987,0,0,1,616.066,100.816Z" fill="#383c93"/>
              </g>
            </g>
          </g>
          <g id="Group_71" data-name="Group 71">
            <g id="Group_70" data-name="Group 70">
              <g id="Group_69" data-name="Group 69">
                <path id="Path_396" data-name="Path 396" d="M662.064,171a30.563,30.563,0,0,1-15.136-3.639,24.948,24.948,0,0,1-10.063-10.384,33.086,33.086,0,0,1-3.532-15.65h0a32.955,32.955,0,0,1,3.7-15.843,26.143,26.143,0,0,1,10.427-10.662,31.045,31.045,0,0,1,15.415-3.747h0a34.555,34.555,0,0,1,9.249,1.285,30.9,30.9,0,0,1,8.2,3.532h0a7.3,7.3,0,0,1,3.768,6.23h0a6.678,6.678,0,0,1-1.242,4.2,3.918,3.918,0,0,1-3.233,1.584h0a7.167,7.167,0,0,1-2.719-.578,23.862,23.862,0,0,1-2.826-1.434h0a31.731,31.731,0,0,0-4.946-2.4,15.432,15.432,0,0,0-5.416-.878h0a13.775,13.775,0,0,0-11.24,4.753,21.053,21.053,0,0,0-3.94,13.723h0a20.766,20.766,0,0,0,3.94,13.6,13.747,13.747,0,0,0,11.24,4.775h0a14.606,14.606,0,0,0,5.245-.878,48.073,48.073,0,0,0,5.117-2.419h0a21.854,21.854,0,0,1,3.062-1.585,6.8,6.8,0,0,1,2.59-.535h0a3.937,3.937,0,0,1,3.19,1.649,6.486,6.486,0,0,1,1.285,4.11h0a6.706,6.706,0,0,1-.878,3.49,8.2,8.2,0,0,1-2.89,2.633h0a30.27,30.27,0,0,1-8.479,3.726A36.5,36.5,0,0,1,662.064,171Z" fill="#383c93"/>
              </g>
            </g>
          </g>
        </g>
        <g id="Group_75" data-name="Group 75">
          <g id="Group_74" data-name="Group 74">
            <g id="Group_73" data-name="Group 73">
              <path id="Path_397" data-name="Path 397" d="M278.208,224.683h0a10.833,10.833,0,0,1,.579-3.64,7.785,7.785,0,0,1,1.562-2.74,6.779,6.779,0,0,1,2.377-1.734,7.178,7.178,0,0,1,3-.621h0a5.474,5.474,0,0,1,2.7.642,6.94,6.94,0,0,1,1.9,1.456h0l-1.22,1.349a5.61,5.61,0,0,0-1.477-1.135,3.989,3.989,0,0,0-1.884-.428h0a4.993,4.993,0,0,0-2.184.471,4.543,4.543,0,0,0-1.67,1.37,6.576,6.576,0,0,0-1.071,2.141,9.683,9.683,0,0,0-.385,2.826h0a10.523,10.523,0,0,0,.364,2.869,6.489,6.489,0,0,0,1.049,2.162,4.608,4.608,0,0,0,1.627,1.392,4.676,4.676,0,0,0,2.163.492h0a4.392,4.392,0,0,0,2.141-.492,6.463,6.463,0,0,0,1.734-1.392h0l1.22,1.306a7.533,7.533,0,0,1-2.269,1.8,6.254,6.254,0,0,1-2.869.642h0a7.436,7.436,0,0,1-2.955-.578,6.717,6.717,0,0,1-2.333-1.713,7.966,7.966,0,0,1-1.542-2.74A11.55,11.55,0,0,1,278.208,224.683Zm23.273,8.735h0a6.9,6.9,0,0,1-2.912-.6,6.59,6.59,0,0,1-2.291-1.777,8.371,8.371,0,0,1-1.477-2.762,12.136,12.136,0,0,1-.514-3.661h0a11.931,11.931,0,0,1,.514-3.64,8.143,8.143,0,0,1,1.477-2.719,6.582,6.582,0,0,1,2.291-1.713,6.9,6.9,0,0,1,2.912-.6h0a6.784,6.784,0,0,1,2.911.621,6.57,6.57,0,0,1,2.291,1.713A7.65,7.65,0,0,1,308.16,221a11.411,11.411,0,0,1,.536,3.618h0a11.681,11.681,0,0,1-.536,3.661,7.864,7.864,0,0,1-1.477,2.762,6.59,6.59,0,0,1-2.291,1.777A7,7,0,0,1,301.481,233.418Zm0-1.863h0a4.158,4.158,0,0,0,2.034-.492,4.53,4.53,0,0,0,1.562-1.392,7.027,7.027,0,0,0,1.028-2.183,10.528,10.528,0,0,0,.364-2.869h0a10.175,10.175,0,0,0-.364-2.826,6.473,6.473,0,0,0-1.028-2.141,4.406,4.406,0,0,0-1.562-1.349,4.318,4.318,0,0,0-2.034-.471h0a4.446,4.446,0,0,0-2.056.471,4.664,4.664,0,0,0-1.563,1.349,6.767,6.767,0,0,0-1.006,2.141,10.212,10.212,0,0,0-.364,2.826h0a10.528,10.528,0,0,0,.364,2.869,7.333,7.333,0,0,0,1.006,2.183,4.829,4.829,0,0,0,1.563,1.392A4.279,4.279,0,0,0,301.481,231.555Zm12.974,1.563V216.269h2.205l6.1,10.576,1.82,3.49h.107q-.087-1.284-.172-2.655t-.085-2.7h0v-8.714h2.034v16.849h-2.227l-6.1-10.619-1.82-3.468h-.107q.108,1.284.193,2.612t.086,2.655h0v8.82Zm18.776,0V216.269h2.205l6.08,10.576,1.82,3.49h.107q-.063-1.284-.171-2.655t-.086-2.7h0v-8.714h2.034v16.849h-2.2L336.892,222.5l-1.82-3.468h-.107q.108,1.284.193,2.612t.085,2.655h0v8.82Zm18.755,0V216.269h9.72v1.8h-7.579v5.289h6.38v1.819h-6.38V231.3h7.836v1.819Zm14.708-8.435h0a11.22,11.22,0,0,1,.557-3.64,8.241,8.241,0,0,1,1.563-2.74,6.766,6.766,0,0,1,2.376-1.734,7.279,7.279,0,0,1,3-.621h0a5.474,5.474,0,0,1,2.7.642,6.925,6.925,0,0,1,1.9,1.456h0l-1.2,1.349a6.09,6.09,0,0,0-1.478-1.135,4.046,4.046,0,0,0-1.9-.428h0a4.993,4.993,0,0,0-2.184.471,4.779,4.779,0,0,0-1.67,1.37,6.554,6.554,0,0,0-1.07,2.141,9.65,9.65,0,0,0-.386,2.826h0a10.525,10.525,0,0,0,.364,2.869,7.084,7.084,0,0,0,1.049,2.162,4.608,4.608,0,0,0,1.627,1.392,4.724,4.724,0,0,0,2.184.492h0a4.458,4.458,0,0,0,2.141-.492A6.942,6.942,0,0,0,378,229.671h0l1.2,1.306a7.611,7.611,0,0,1-2.248,1.8,6.286,6.286,0,0,1-2.89.642h0a7.365,7.365,0,0,1-2.933-.578,6.731,6.731,0,0,1-2.334-1.713,7.522,7.522,0,0,1-1.541-2.74A11.55,11.55,0,0,1,366.694,224.683Zm20.81,8.435V218.067H382.43v-1.8h12.332v1.8h-5.1v15.051Zm9.056-1.284h0a1.621,1.621,0,0,1,.45-1.2,1.488,1.488,0,0,1,1.092-.45h0a1.464,1.464,0,0,1,1.07.45,1.621,1.621,0,0,1,.45,1.2h0a1.537,1.537,0,0,1-.45,1.134,1.46,1.46,0,0,1-1.07.45h0a1.484,1.484,0,0,1-1.092-.45A1.537,1.537,0,0,1,396.56,231.834Zm15.544-7.151h0a11.192,11.192,0,0,1,.556-3.64,7.8,7.8,0,0,1,1.563-2.74,6.779,6.779,0,0,1,2.377-1.734,7.178,7.178,0,0,1,3-.621h0a5.477,5.477,0,0,1,2.7.642,6.94,6.94,0,0,1,1.9,1.456h0l-1.22,1.349a5.6,5.6,0,0,0-1.478-1.135,3.911,3.911,0,0,0-1.884-.428h0a4.989,4.989,0,0,0-2.183.471,4.779,4.779,0,0,0-1.67,1.37,6.536,6.536,0,0,0-1.071,2.141,9.683,9.683,0,0,0-.385,2.826h0a10.525,10.525,0,0,0,.364,2.869,7.085,7.085,0,0,0,1.049,2.162,4.608,4.608,0,0,0,1.627,1.392,4.674,4.674,0,0,0,2.162.492h0a4.523,4.523,0,0,0,2.163-.492,6.96,6.96,0,0,0,1.734-1.392h0l1.2,1.306a7.525,7.525,0,0,1-2.27,1.8,6.156,6.156,0,0,1-2.868.642h0a7.37,7.37,0,0,1-2.934-.578,6.954,6.954,0,0,1-2.355-1.713,7.98,7.98,0,0,1-1.541-2.74A11.952,11.952,0,0,1,412.1,224.683Zm23.25,8.735h0a7,7,0,0,1-2.911-.6,6.406,6.406,0,0,1-2.27-1.777,7.879,7.879,0,0,1-1.477-2.762,11.68,11.68,0,0,1-.535-3.661h0a11.464,11.464,0,0,1,.535-3.64,7.682,7.682,0,0,1,1.477-2.719,6.384,6.384,0,0,1,2.27-1.713,7,7,0,0,1,2.911-.6h0a6.788,6.788,0,0,1,2.912.621,6.57,6.57,0,0,1,2.291,1.713,7.922,7.922,0,0,1,1.5,2.719,11.85,11.85,0,0,1,.513,3.618h0a12.135,12.135,0,0,1-.513,3.661,8.161,8.161,0,0,1-1.5,2.762,6.59,6.59,0,0,1-2.291,1.777A7,7,0,0,1,435.354,233.418Zm0-1.863h0a4.156,4.156,0,0,0,2.034-.492,4.742,4.742,0,0,0,1.585-1.392,7.333,7.333,0,0,0,1.006-2.183,10.528,10.528,0,0,0,.364-2.869h0a10.212,10.212,0,0,0-.364-2.826,6.767,6.767,0,0,0-1.006-2.141,4.613,4.613,0,0,0-1.585-1.349,4.313,4.313,0,0,0-2.034-.471h0a4.311,4.311,0,0,0-2.033.471,4.594,4.594,0,0,0-1.585,1.349,6.768,6.768,0,0,0-1.006,2.141,10.174,10.174,0,0,0-.364,2.826h0a10.528,10.528,0,0,0,.364,2.869,7.332,7.332,0,0,0,1.006,2.183,4.743,4.743,0,0,0,1.585,1.392A4.154,4.154,0,0,0,435.354,231.555Zm12.975,1.563V216.269h2.141V231.3h7.364v1.819Zm14.644,0V216.269h2.119V231.3h7.387v1.819Zm16.806-6.851h5.053l-.792-2.569q-.471-1.413-.878-2.826T482.348,218h-.107q-.385,1.478-.792,2.869t-.878,2.826h0Zm7.194,6.851-1.606-5.138h-6.123l-1.627,5.138h-2.184l5.695-16.849h2.419l5.717,16.849Zm6.808,0V216.269h5.01a10.9,10.9,0,0,1,2.355.236,5.114,5.114,0,0,1,1.82.706,3.273,3.273,0,0,1,1.177,1.285,3.817,3.817,0,0,1,.428,1.884h0a3.846,3.846,0,0,1-.706,2.269,3.793,3.793,0,0,1-2.227,1.392h0v.107a5.083,5.083,0,0,1,2.891,1.284,3.691,3.691,0,0,1,1.027,2.762h0a4.628,4.628,0,0,1-.471,2.141,3.9,3.9,0,0,1-1.306,1.542,6.218,6.218,0,0,1-2.034.942,10.461,10.461,0,0,1-2.59.3Zm2.141-9.655h2.484a5.076,5.076,0,0,0,3.125-.75,2.6,2.6,0,0,0,.942-2.162h0a2.14,2.14,0,0,0-.985-1.991,5.918,5.918,0,0,0-2.975-.6h-2.591Zm0,7.964h2.933a6,6,0,0,0,3.383-.814,2.841,2.841,0,0,0,1.2-2.526h0a2.547,2.547,0,0,0-1.178-2.312,6.52,6.52,0,0,0-3.4-.728h-2.933Zm21.324,1.991h0a7,7,0,0,1-2.912-.6,6.394,6.394,0,0,1-2.269-1.777,7.864,7.864,0,0,1-1.477-2.762,11.681,11.681,0,0,1-.536-3.661h0a11.493,11.493,0,0,1,.536-3.64,7.667,7.667,0,0,1,1.477-2.719,6.381,6.381,0,0,1,2.269-1.713,7,7,0,0,1,2.912-.6h0a6.7,6.7,0,0,1,2.912.621,6.557,6.557,0,0,1,2.29,1.713,7.905,7.905,0,0,1,1.5,2.719,11.85,11.85,0,0,1,.514,3.618h0a12.135,12.135,0,0,1-.514,3.661,8.127,8.127,0,0,1-1.5,2.762,6.587,6.587,0,0,1-2.29,1.777A6.906,6.906,0,0,1,517.246,233.418Zm0-1.863h0a4.275,4.275,0,0,0,2.055-.492,4.808,4.808,0,0,0,1.563-1.392,7.333,7.333,0,0,0,1.006-2.183,10.492,10.492,0,0,0,.364-2.869h0a10.176,10.176,0,0,0-.364-2.826,6.745,6.745,0,0,0-1.006-2.141A4.664,4.664,0,0,0,519.3,218.3a4.439,4.439,0,0,0-2.055-.471h0a4.315,4.315,0,0,0-2.034.471,4.418,4.418,0,0,0-1.563,1.349,6.493,6.493,0,0,0-1.028,2.141,10.211,10.211,0,0,0-.364,2.826h0a10.568,10.568,0,0,0,.364,2.869,7.028,7.028,0,0,0,1.028,2.183,4.543,4.543,0,0,0,1.563,1.392A4.156,4.156,0,0,0,517.246,231.555Zm15.115-13.573v6.273h2.826a4.884,4.884,0,0,0,3.04-.814,2.9,2.9,0,0,0,1.049-2.44h0a2.6,2.6,0,0,0-1.049-2.356,5.726,5.726,0,0,0-3.04-.663Zm9.527,15.136h-2.4l-4.067-7.108h-3.062v7.108h-2.12V216.269h5.267a11.235,11.235,0,0,1,2.377.236,5.163,5.163,0,0,1,1.862.813,3.678,3.678,0,0,1,1.221,1.456,4.953,4.953,0,0,1,.449,2.227h0a4.612,4.612,0,0,1-1.027,3.147,5.328,5.328,0,0,1-2.762,1.627h0Zm7.258-6.851h5.074l-.813-2.569q-.45-1.413-.857-2.826T551.715,218h-.107q-.385,1.478-.792,2.869t-.878,2.826h0Zm7.194,6.851-1.585-5.138h-6.144l-1.627,5.138H544.8l5.716-16.849h2.42l5.7,16.849Zm9.291,0V218.067h-5.095v-1.8h12.332v1.8h-5.074v15.051Zm12.418,0V216.269h9.7v1.8h-7.578v5.289h6.4v1.819h-6.4V231.3H588v1.819Zm15.029-1.284h0a1.621,1.621,0,0,1,.45-1.2,1.488,1.488,0,0,1,1.092-.45h0a1.462,1.462,0,0,1,1.07.45,1.617,1.617,0,0,1,.45,1.2h0a1.537,1.537,0,0,1-.45,1.134,1.458,1.458,0,0,1-1.07.45h0a1.484,1.484,0,0,1-1.092-.45A1.537,1.537,0,0,1,593.078,231.834Zm15.544-7.151h0a10.807,10.807,0,0,1,.578-3.64,7.848,7.848,0,0,1,1.606-2.74,7.077,7.077,0,0,1,2.462-1.734,7.629,7.629,0,0,1,3.1-.621h0a5.773,5.773,0,0,1,2.912.664,8.477,8.477,0,0,1,1.927,1.434h0L619.99,219.4a5.993,5.993,0,0,0-1.477-1.113,4.444,4.444,0,0,0-2.12-.45h0a5.481,5.481,0,0,0-2.312.471,4.631,4.631,0,0,0-1.734,1.37,6.079,6.079,0,0,0-1.113,2.141,9.176,9.176,0,0,0-.407,2.826h0a10.484,10.484,0,0,0,.364,2.869,6.545,6.545,0,0,0,1.092,2.162,4.831,4.831,0,0,0,1.734,1.392,5.627,5.627,0,0,0,2.419.492h0a5.061,5.061,0,0,0,1.691-.278,3.479,3.479,0,0,0,1.328-.728h0V226.16h-3.576v-1.777H621.4v7.087a6.189,6.189,0,0,1-2.162,1.413,8.2,8.2,0,0,1-3.04.535h0a7.91,7.91,0,0,1-3.062-.578,6.854,6.854,0,0,1-2.4-1.713,8.259,8.259,0,0,1-1.563-2.74,11.522,11.522,0,0,1-.556-3.7Zm21.088-6.7v6.273h2.826a4.881,4.881,0,0,0,3.04-.814,2.894,2.894,0,0,0,1.049-2.44h0a2.594,2.594,0,0,0-1.049-2.356,5.726,5.726,0,0,0-3.04-.663Zm9.549,15.136h-2.42l-4.067-7.108H629.71v7.108h-2.119V216.269h5.266a11.229,11.229,0,0,1,2.377.236,5.155,5.155,0,0,1,1.862.813,3.67,3.67,0,0,1,1.221,1.456,4.953,4.953,0,0,1,.449,2.227h0a4.612,4.612,0,0,1-1.027,3.147,5.328,5.328,0,0,1-2.762,1.627h0Zm11.6.3h0a7,7,0,0,1-2.912-.6,6.393,6.393,0,0,1-2.269-1.777,8.374,8.374,0,0,1-1.478-2.762,11.709,11.709,0,0,1-.535-3.661h0a11.521,11.521,0,0,1,.535-3.64,8.146,8.146,0,0,1,1.478-2.719,6.381,6.381,0,0,1,2.269-1.713,7,7,0,0,1,2.912-.6h0a6.825,6.825,0,0,1,2.933.621,6.626,6.626,0,0,1,2.269,1.713,7.923,7.923,0,0,1,1.5,2.719,11.383,11.383,0,0,1,.535,3.618h0a11.681,11.681,0,0,1-.535,3.661,8.127,8.127,0,0,1-1.5,2.762,6.645,6.645,0,0,1-2.269,1.777A7.051,7.051,0,0,1,650.863,233.418Zm0-1.863h0a4.275,4.275,0,0,0,2.055-.492,4.82,4.82,0,0,0,1.563-1.392,6.687,6.687,0,0,0,1.006-2.183,10.492,10.492,0,0,0,.364-2.869h0a10.176,10.176,0,0,0-.364-2.826,6.19,6.19,0,0,0-1.006-2.141,4.664,4.664,0,0,0-1.563-1.349,4.439,4.439,0,0,0-2.055-.471h0a4.328,4.328,0,0,0-3.6,1.82,6.493,6.493,0,0,0-1.028,2.141,10.813,10.813,0,0,0-.342,2.826h0a11.149,11.149,0,0,0,.342,2.869,7.028,7.028,0,0,0,1.028,2.183,4.533,4.533,0,0,0,1.563,1.392A4.237,4.237,0,0,0,650.863,231.555Zm14.687,1.563-3.576-16.849h2.205l1.777,9.163q.235,1.392.493,2.719t.492,2.741h.107q.279-1.392.578-2.741t.6-2.719h0l2.334-9.163h1.948l2.333,9.163q.321,1.35.621,2.7t.621,2.762h.107q.235-1.392.45-2.741t.492-2.719h0l1.777-9.163h2.056l-3.49,16.849h-2.569l-2.548-10.148q-.235-.984-.428-1.9t-.386-1.927h-.107q-.213.984-.428,1.927t-.428,1.9h0L668.1,233.118Z"/>
            </g>
          </g>
        </g>
      </g>
    </g>
  </g>
</svg>
