<svg xmlns="http://www.w3.org/2000/svg" width="95" height="24" viewBox="0 0 95 24"> <path fill="currentcolor" d="M9.4 0c1.2 0 3 .2 4.3.7C15 1.2 16 2 17 2.7L15.7 5l-1-.9A9.4 9.4 0 0 0 11.2 3l-2-.2c-1.8 0-3.2.3-4 1C4.4 4.4 4 5.3 4 6.5c0 1.2.1 1.2.4 1.6.2.4.6.8 1.1 1.1a45.8 45.8 0 0 0 4.7 1.5c1.2.2 2.3.6 3.3.9 1 .3 1.8.8 2.5 1.3s1.2 1.1 1.6 1.8c.4.8.6 1.7.6 2.7 0 1-.3 2.1-.7 3a6 6 0 0 1-1.8 2c-.8.6-1.7 1-2.7 1.2a15.4 15.4 0 0 1-13-3l1.4-2.4c.4.3.8.7 1.4 1A11.3 11.3 0 0 0 7 21c.9.2 1.7.3 2.7.3 1.6 0 3-.3 3.9-.9a3 3 0 0 0 1.4-2.7c0-1.2-.2-1.2-.5-1.7-.3-.4-.7-.8-1.3-1.1-.6-.4-1.3-.7-2.1-1l-3-.7c-1.1-.3-2.2-.6-3-1a9 9 0 0 1-2.4-1.1c-.6-.5-1-1-1.3-1.7C1 8.7.9 7.9.9 7c0-1 .2-2.1.6-3 .5-.9 1-1.6 1.8-2.2A11 11 0 0 1 9.4 0Zm45.8 10.6 10 13.2h-3.3l-8.5-11.5-4.1 4.3v7.2h-3V.2h3v13L61.4.2h3.3l-9.5 10.4Zm16.3 13.2h-3V.2h3v23.6Zm20.2-5.2V.2h3v23.6h-2.5l-14.4-18v18h-3V.2h2.3l14.6 18.4Z"></path> <g class="navbar_logo-tiger"> <path fill="currentcolor" d="M21.6 7a11.5 11.5 0 1 1 17.3 14.3 11.4 11.4 0 0 1-9 2.3v-1.2a4.7 4.7 0 0 1 2.6-4c.7-.4 1.6-.4 2.5-.4.8 0 1.8.1 2.5-.3 0 0 .2-.2.1-.3h-.4c-1 .3-1.8 0-2.6-.4-.5-.2-.7-.8-.9-1.2a3 3 0 0 1 0-2c.2-.6.7-1.5.2-2.2-.2-.2-.5-.4-.8-.4a3 3 0 0 0-.8-.1h-.5l-.3-.3c0-.1 0-.3.2-.5l.7-.5h.1l1.2-.3c.4 0 .9.1 1.2.4.4.5.5 1.2.5 2-.1 1-.6 2-.4 3.1 0 .3 0 .6.3.8.2.2.5.4.8.4h1.1c.4-.1.8-.2 1.1-.1l.5.1h.5c.4-.2.7-.8.6-1.2 0-.4-.4-.4-.7-.2l-.5.4-.5.2c-.5 0-.9-.5-1-.9l-.2-.2c0-.5 1-.6 1.4-.5.2 0 1.3.5 1.2 0l-.1-.2-1-1.2-1-1.8c-.1-.1-.2-.3-.1-.5l.3-.1h.3c.2 0 .3-.1.3-.3l-.4-.7-.6-.6-1.3-1-2.1-.9c-2-.5-4-.3-6 .1l-.4.1c-.1 0-.3.1-.3.3l.2.2.1.1.1.3h-.1l-1.1-.8c-.4-.1-.9-.4-1.3-.4-.5 0-1.2 0-1.7.3-.2.2-.5.4-.6.8-.1.4 0 .9.2 1.3l.4.7c.1.1.5.4.4.6 0 .2-.6.5-.7.6-.9.6-1.7 1.2-2.6 1.6h-.1v-1.6c.2-1.2.6-2.5 1.2-3.7ZM28 22.3c0-.5.6-.1.7 0l.1.1v.3c0 .1-.3 0-.4 0l-.3-.2-.2-.2Z"></path> <path fill="currentcolor" d="M29.1 20.1c.2 0 .4 0 .4.3 0 .4-.5.7-1 .7-.2 0-.4 0-.5-.4-.1-.7.7-.6 1.1-.6Zm-2.4-3.2c.4-.2 1.4-.4 1.5.3l-.2.5-.6.3h-.7a.6.6 0 0 1-.4-.2.5.5 0 0 1 0-.5l.4-.4ZM24 15.5c.1-.3.4-.4.7-.3.2 0 .6 0 .8.3.2.5-.3.8-.7.8h-.2a.7.7 0 0 1-.5-.3.6.6 0 0 1 0-.5Zm-2.8-1.7c.4-.4 1.3-.3 1.2.3 0 .4-.5.8-1 .8h-.1c-.2-.1-.4-.3-.4-.5l.1-.3.2-.3Zm6.8-.3h.7c.2 0 .4.2.5.3v.3c0 .2-.2.3-.4.3h-.5c-.3 0-.7-.2-.6-.5 0-.2.1-.3.3-.4Zm-2.5-3.1c.1-.5 1.2-.6 1.6-.3v.4l-.1.3c-.2.2-.4.2-.7.2h-.5c-.2-.1-.4-.4-.3-.6ZM29 9c-.3-.4.7-.5.8-.2.1.3-.5.4-.6.4-.1 0-.2 0-.3-.2Zm-4-2 .8.4.7.5c.2.1.2.4 0 .5l-.3.1c-.2 0-.3-.3-.4-.5l-1-.8c-.3-.2.2-.2.3-.1Z"></path> </g> </svg>

